<svg xmlns="http://www.w3.org/2000/svg" width="26.865" height="27.452" viewBox="0 0 26.865 27.452">
  <g id="Icon_feather-shopping-cart" data-name="Icon feather-shopping-cart" transform="translate(-0.5 -0.5)">
    <g id="Caminho_235" data-name="Caminho 235" transform="translate(-3.498 -7.048)" fill="#ff5e00" stroke-linecap="round" stroke-linejoin="round">
      <path d="M 14.49999809265137 34 C 13.6728982925415 34 12.99999809265137 33.32709884643555 12.99999809265137 32.5 C 12.99999809265137 31.67289924621582 13.6728982925415 31 14.49999809265137 31 C 15.32709789276123 31 15.99999809265137 31.67289924621582 15.99999809265137 32.5 C 15.99999809265137 33.32709884643555 15.32709789276123 34 14.49999809265137 34 Z" stroke="none"/>
      <path d="M 14.49999904632568 32 C 14.22429943084717 32 13.99999904632568 32.22430038452148 13.99999904632568 32.5 C 13.99999904632568 32.77569961547852 14.22429943084717 33 14.49999904632568 33 C 14.7756986618042 33 14.99999904632568 32.77569961547852 14.99999904632568 32.5 C 14.99999904632568 32.22430038452148 14.7756986618042 32 14.49999904632568 32 M 14.49999904632568 30 C 15.88070869445801 30 17 31.11928939819336 17 32.5 C 17 33.88071060180664 15.88070869445801 35 14.49999904632568 35 C 13.11928939819336 35 12 33.88071060180664 12 32.5 C 12 31.11928939819336 13.11928939819336 30 14.49999904632568 30 Z" stroke="none" fill="#ff5e00"/>
    </g>
    <g id="Caminho_236" data-name="Caminho 236" transform="translate(-7.566 -7.048)" fill="#ff5e00" stroke-linecap="round" stroke-linejoin="round">
      <path d="M 30.99999618530273 34 C 30.17289543151855 34 29.49999618530273 33.32709884643555 29.49999618530273 32.5 C 29.49999618530273 31.67289924621582 30.17289543151855 31 30.99999618530273 31 C 31.82709693908691 31 32.49999618530273 31.67289924621582 32.49999618530273 32.5 C 32.49999618530273 33.32709884643555 31.82709693908691 34 30.99999618530273 34 Z" stroke="none"/>
      <path d="M 30.99999618530273 32 C 30.72429656982422 32 30.49999618530273 32.22430038452148 30.49999618530273 32.5 C 30.49999618530273 32.77569961547852 30.72429656982422 33 30.99999618530273 33 C 31.27569580078125 33 31.49999618530273 32.77569961547852 31.49999618530273 32.5 C 31.49999618530273 32.22430038452148 31.27569580078125 32 30.99999618530273 32 M 30.99999618530273 30 C 32.38070678710938 30 33.49999618530273 31.11928939819336 33.49999618530273 32.5 C 33.49999618530273 33.88071060180664 32.38070678710938 35 30.99999618530273 35 C 29.61928558349609 35 28.49999618530273 33.88071060180664 28.49999618530273 32.5 C 28.49999618530273 31.11928939819336 29.61928558349609 30 30.99999618530273 30 Z" stroke="none" fill="#ff5e00"/>
    </g>
    <path id="Caminho_237" data-name="Caminho 237" d="M1.5,1.5H6.021L9.05,16.633a2.26,2.26,0,0,0,2.26,1.82H22.3a2.26,2.26,0,0,0,2.26-1.82l1.808-9.482H7.151" fill="none" stroke="#ff5e00" stroke-linecap="round" stroke-linejoin="round" stroke-width="2"/>
  </g>
</svg>
