<svg id="Grupo_322" data-name="Grupo 322" xmlns="http://www.w3.org/2000/svg" width="26" height="26" viewBox="0 0 26 26">
  <path id="Caminho_110" data-name="Caminho 110" d="M911.757,5259.747a12.267,12.267,0,0,0-11.554,5.765,12.128,12.128,0,0,0-.534,12.875,1.385,1.385,0,0,1,.068,1.207c-.694,1.988-1.355,3.987-2.077,6.131,2.234-.71,4.332-1.365,6.42-2.052a1.5,1.5,0,0,1,1.229.093,12.689,12.689,0,1,0,6.449-24.019Zm5.106,21.332a10.247,10.247,0,0,1-11.149.494,1.583,1.583,0,0,0-1.434-.149c-1.042.383-2.116.68-3.312,1.055.391-1.158.71-2.19,1.1-3.2a1.319,1.319,0,0,0-.173-1.326,10.428,10.428,0,0,1,.405-11.761,10.685,10.685,0,0,1,11.234-4.035,10.524,10.524,0,0,1,7.9,8.8A10.064,10.064,0,0,1,916.863,5281.079Z" transform="translate(-897.659 -5259.725)" fill="#25d366"/>
  <path id="Caminho_111" data-name="Caminho 111" d="M907.172,5271.774a3.494,3.494,0,0,1,.969-2.489c1.018-1.088,2.172-.886,2.677.473a6.963,6.963,0,0,0,.317.833c.555,1.042.619,1.988-.451,2.77-.3.219-.242.5-.077.795A8.835,8.835,0,0,0,914.8,5278a.605.605,0,0,0,.8-.127c.053-.062.11-.121.166-.179,1.244-1.3,1.244-1.3,2.892-.433.169.089.339.175.507.264a1.5,1.5,0,0,1,.3,2.676,3.451,3.451,0,0,1-3.332.852c-4.067-1.071-6.721-3.749-8.54-7.373A4.107,4.107,0,0,1,907.172,5271.774Z" transform="translate(-900.301 -5262.187)" fill="#25d366"/>
</svg>
